<svg width="27" height="27" viewBox="0 0 27 27" fill="none" xmlns="http://www.w3.org/2000/svg">
<path fill-rule="evenodd" clip-rule="evenodd" d="M11.6804 12.0136L10.3716 16.1974L14.5541 14.8874L15.8641 10.7036L11.6804 12.0136ZM8.94161 18.5639C8.69661 18.5639 8.45661 18.4677 8.27786 18.2902C8.03161 18.0427 7.94161 17.6789 8.04661 17.3477L10.0379 10.9864C10.1291 10.6914 10.3591 10.4627 10.6516 10.3714L17.0129 8.38016C17.3466 8.27391 17.7091 8.36516 17.9566 8.61141C18.2029 8.85891 18.2929 9.22266 18.1879 9.55391L16.1979 15.9152C16.1066 16.2089 15.8754 16.4389 15.5829 16.5302L9.22161 18.5214C9.12911 18.5502 9.03411 18.5639 8.94161 18.5639Z" fill="#071A34"/>
<mask id="mask0_259_284" style="mask-type:luminance" maskUnits="userSpaceOnUse" x="0" y="0" width="27" height="27">
<path fill-rule="evenodd" clip-rule="evenodd" d="M0.166504 0.499695H26.0688V26.4018H0.166504V0.499695Z" fill="white"/>
</mask>
<g mask="url(#mask0_259_284)">
<path fill-rule="evenodd" clip-rule="evenodd" d="M13.1174 2.37453C7.00992 2.37453 2.04117 7.34453 2.04117 13.4508C2.04117 19.5583 7.00992 24.527 13.1174 24.527C19.2249 24.527 24.1937 19.5583 24.1937 13.4508C24.1937 7.34453 19.2249 2.37453 13.1174 2.37453ZM13.1175 26.4022C5.97626 26.4022 0.16626 20.5922 0.16626 13.4509C0.16626 6.3097 5.97626 0.499695 13.1175 0.499695C20.2588 0.499695 26.0688 6.3097 26.0688 13.4509C26.0688 20.5922 20.2588 26.4022 13.1175 26.4022Z" fill="#071A34"/>
</g>
</svg>
