<svg width="16" height="17" viewBox="0 0 16 17" fill="none" xmlns="http://www.w3.org/2000/svg">
<path fill-rule="evenodd" clip-rule="evenodd" d="M9.33329 9.9447H10.6666C11.0346 9.9447 11.3333 10.2434 11.3333 10.6114V13.278C11.3333 13.646 11.0346 13.9447 10.6666 13.9447H9.33329C8.96529 13.9447 8.66663 13.646 8.66663 13.278V10.6114C8.66663 10.2434 8.96529 9.9447 9.33329 9.9447Z" stroke="#071A34" stroke-linecap="round" stroke-linejoin="round"/>
<path d="M14 11.9447H11.3334" stroke="#071A34" stroke-linecap="round" stroke-linejoin="round"/>
<path d="M8.66667 11.9447H2" stroke="#071A34" stroke-linecap="round" stroke-linejoin="round"/>
<path fill-rule="evenodd" clip-rule="evenodd" d="M6.66663 7.27802H5.33329C4.96529 7.27802 4.66663 6.97935 4.66663 6.61135V3.94468C4.66663 3.57668 4.96529 3.27802 5.33329 3.27802H6.66663C7.03463 3.27802 7.33329 3.57668 7.33329 3.94468V6.61135C7.33329 6.97935 7.03463 7.27802 6.66663 7.27802Z" stroke="#071A34" stroke-linecap="round" stroke-linejoin="round"/>
<path d="M2 5.27797H4.66667" stroke="#071A34" stroke-linecap="round" stroke-linejoin="round"/>
<path d="M7.33337 5.27797H14" stroke="#071A34" stroke-linecap="round" stroke-linejoin="round"/>
</svg>
