<svg width="31" height="30" viewBox="0 0 31 30" fill="none" xmlns="http://www.w3.org/2000/svg">
<path d="M17.0834 11.2482C17.0834 12.6301 14.2848 13.7493 10.8321 13.7493C7.37813 13.7493 4.57947 12.6301 4.57947 11.2482" stroke="#071A34" stroke-width="1.6" stroke-linecap="round" stroke-linejoin="round"/>
<path d="M10.8308 18.7509C7.37813 18.7509 4.57947 17.6317 4.57947 16.2499" stroke="#071A34" stroke-width="1.6" stroke-linecap="round" stroke-linejoin="round"/>
<path d="M17.0839 6.24512H17.0852V13.7482" stroke="#071A34" stroke-width="1.6" stroke-linecap="round" stroke-linejoin="round"/>
<path d="M27.0857 18.751C27.0882 17.3692 24.2871 16.25 20.8356 16.25C17.3842 16.25 14.583 17.3692 14.5843 18.751C14.5843 20.1329 17.383 21.2521 20.8369 21.2521C24.2908 21.2521 27.0895 20.1329 27.0895 18.751" stroke="#071A34" stroke-width="1.6" stroke-linecap="round" stroke-linejoin="round"/>
<path d="M27.0882 18.751V23.7531C27.0882 25.1349 24.2896 26.2541 20.8369 26.2541C17.383 26.2541 14.5843 25.1349 14.5843 23.7531V18.751" stroke="#071A34" stroke-width="1.6" stroke-linecap="round" stroke-linejoin="round"/>
<path d="M10.831 23.754C7.37835 23.754 4.57843 22.6348 4.57843 21.2529" stroke="#071A34" stroke-width="1.6" stroke-linecap="round" stroke-linejoin="round"/>
<ellipse cx="10.8311" cy="6.24622" rx="6.2526" ry="2.50104" stroke="#071A34" stroke-width="1.6" stroke-linecap="round" stroke-linejoin="round"/>
<path d="M4.57869 6.24512V21.2514" stroke="#071A34" stroke-width="1.6" stroke-linecap="round" stroke-linejoin="round"/>
<path d="M23.3364 6.24512V12.4977" stroke="#3856DD" stroke-width="1.6" stroke-linecap="round" stroke-linejoin="round"/>
<path d="M25.8383 8.74616L23.3372 6.24512L20.8362 8.74616" stroke="#3856DD" stroke-width="1.6" stroke-linecap="round" stroke-linejoin="round"/>
</svg>
